<svg xmlns="http://www.w3.org/2000/svg" xmlns:xlink="http://www.w3.org/1999/xlink" xmlns:s="https://github.com/nturley/netlistsvg" width="317" height="239">
  <style>svg {
    stroke:#000;
    fill:none;
  }
  text {
    fill:#000;
    stroke:none;
    font-size:10px;
    font-weight: bold;
    font-family: "Courier New", monospace;
  }
  line {
      stroke-linecap: round;
  }
  .nodelabel {
    text-anchor: middle;
  }
  .inputPortLabel {
    text-anchor: end;
  }
  .splitjoinBody {
    fill:#000;
  }</style>
  <g s:type="and" transform="translate(77,82)" s:width="30" s:height="25" id="cell_And1">
    <text x="5" y="-5">And</text>
    <s:alias val="$and"/>
    <s:alias val="$logic_and"/>
    <s:alias val="$_AND_"/>
    <s:alias val="$reduce_and"/>
    <path d="M0,0 L0,25 L15,25 A15 12.5 0 0 0 15,0 Z" class="cell_And1"/>
    <g s:x="0" s:y="5" s:pid="A"/>
    <g s:x="0" s:y="20" s:pid="B"/>
    <g s:x="30" s:y="12.5" s:pid="Y"/>
  </g>
  <g s:type="and" transform="translate(142,142)" s:width="30" s:height="25" id="cell_And2">
    <text x="5" y="-5">And</text>
    <s:alias val="$and"/>
    <s:alias val="$logic_and"/>
    <s:alias val="$_AND_"/>
    <s:alias val="$reduce_and"/>
    <path d="M0,0 L0,25 L15,25 A15 12.5 0 0 0 15,0 Z" class="cell_And2"/>
    <g s:x="0" s:y="5" s:pid="A"/>
    <g s:x="0" s:y="20" s:pid="B"/>
    <g s:x="30" s:y="12.5" s:pid="Y"/>
  </g>
  <g s:type="or" transform="translate(142,202)" s:width="30" s:height="25" id="cell_Or3">
    <text x="5" y="-5">Or</text>
    <s:alias val="$or"/>
    <s:alias val="$logic_or"/>
    <s:alias val="$_OR_"/>
    <s:alias val="$reduce_or"/>
    <s:alias val="$reduce_bool"/>
    <path d="M0,0 A30 25 0 0 1 0,25 A30 25 0 0 0 30,12.5 A30 25 0 0 0 0,0" class="cell_Or3"/>
    <g s:x="2" s:y="5" s:pid="A"/>
    <g s:x="2" s:y="20" s:pid="B"/>
    <g s:x="30" s:y="12.5" s:pid="Y"/>
  </g>
  <g s:type="or" transform="translate(208,77)" s:width="30" s:height="25" id="cell_Or4">
    <text x="5" y="-5">Or</text>
    <s:alias val="$or"/>
    <s:alias val="$logic_or"/>
    <s:alias val="$_OR_"/>
    <s:alias val="$reduce_or"/>
    <s:alias val="$reduce_bool"/>
    <path d="M0,0 A30 25 0 0 1 0,25 A30 25 0 0 0 30,12.5 A30 25 0 0 0 0,0" class="cell_Or4"/>
    <g s:x="2" s:y="5" s:pid="A"/>
    <g s:x="2" s:y="20" s:pid="B"/>
    <g s:x="30" s:y="12.5" s:pid="Y"/>
  </g>
  <g s:type="reduce_xor" transform="translate(207,194.5)" s:width="33" s:height="25" id="cell_Xor5">
    <text x="5" y="-5">Xor</text>
    <s:alias val="$xor"/>
    <s:alias val="$reduce_xor"/>
    <s:alias val="$_XOR_"/>
    <path d="M3,0 A30 25 0 0 1 3,25 A30 25 0 0 0 33,12.5 A30 25 0 0 0 3,0" class="cell_Xor5"/>
    <path d="M0,0 A30 25 0 0 1 0,25" class="cell_Xor5"/>
    <g s:x="2" s:y="5" s:pid="A"/>
    <g s:x="2" s:y="20" s:pid="B"/>
    <g s:x="33" s:y="12.5" s:pid="Y"/>
  </g>
  <g s:type="inputExt" transform="translate(12,77)" s:width="30" s:height="20" id="cell_A">
    <text x="15" y="-4" class="nodelabel cell_A" s:attribute="ref">A</text>
    <s:alias val="$_inputExt_"/>
    <path d="M0,0 L0,20 L15,20 L30,10 L15,0 Z" class="cell_A"/>
    <g s:x="30" s:y="10" s:pid="Y"/>
  </g>
  <g s:type="inputExt" transform="translate(12,197)" s:width="30" s:height="20" id="cell_B">
    <text x="15" y="-4" class="nodelabel cell_B" s:attribute="ref">B</text>
    <s:alias val="$_inputExt_"/>
    <path d="M0,0 L0,20 L15,20 L30,10 L15,0 Z" class="cell_B"/>
    <g s:x="30" s:y="10" s:pid="Y"/>
  </g>
  <g s:type="inputExt" transform="translate(77,152)" s:width="30" s:height="20" id="cell_C">
    <text x="15" y="-4" class="nodelabel cell_C" s:attribute="ref">C</text>
    <s:alias val="$_inputExt_"/>
    <path d="M0,0 L0,20 L15,20 L30,10 L15,0 Z" class="cell_C"/>
    <g s:x="30" s:y="10" s:pid="Y"/>
  </g>
  <g s:type="inputExt" transform="translate(142,22)" s:width="30" s:height="20" id="cell_D">
    <text x="15" y="-4" class="nodelabel cell_D" s:attribute="ref">D</text>
    <s:alias val="$_inputExt_"/>
    <path d="M0,0 L0,20 L15,20 L30,10 L15,0 Z" class="cell_D"/>
    <g s:x="30" s:y="10" s:pid="Y"/>
  </g>
  <g s:type="inputExt" transform="translate(142,87)" s:width="30" s:height="20" id="cell_E">
    <text x="15" y="-4" class="nodelabel cell_E" s:attribute="ref">E</text>
    <s:alias val="$_inputExt_"/>
    <path d="M0,0 L0,20 L15,20 L30,10 L15,0 Z" class="cell_E"/>
    <g s:x="30" s:y="10" s:pid="Y"/>
  </g>
  <g s:type="outputExt" transform="translate(275,197)" s:width="30" s:height="20" id="cell_OUT">
    <text x="15" y="-4" class="nodelabel cell_OUT" s:attribute="ref">OUT</text>
    <s:alias val="$_outputExt_"/>
    <path d="M30,0 L30,20 L15,20 L0,10 L15,0 Z" class="cell_OUT"/>
    <g s:x="0" s:y="10" s:pid="A"/>
  </g>
  <line x1="42" x2="77" y1="87" y2="87" class="net_1"/>
  <line x1="42" x2="52" y1="87" y2="87" class="net_1"/>
  <line x1="52" x2="52" y1="87" y2="222" class="net_1"/>
  <circle cx="52" cy="87" r="2" style="fill:#000" class="net_1"/>
  <line x1="52" x2="144" y1="222" y2="222" class="net_1"/>
  <line x1="42" x2="62" y1="207" y2="207" class="net_2"/>
  <line x1="62" x2="62" y1="207" y2="102" class="net_2"/>
  <circle cx="62" cy="207" r="2" style="fill:#000" class="net_2"/>
  <line x1="62" x2="77" y1="102" y2="102" class="net_2"/>
  <line x1="42" x2="144" y1="207" y2="207" class="net_2"/>
  <line x1="107" x2="117" y1="94.5" y2="94.5" class="net_8"/>
  <line x1="117" x2="117" y1="94.5" y2="147" class="net_8"/>
  <line x1="117" x2="142" y1="147" y2="147" class="net_8"/>
  <line x1="107" x2="142" y1="162" y2="162" class="net_3"/>
  <line x1="172" x2="182" y1="32" y2="32" class="net_4"/>
  <line x1="182" x2="182" y1="32" y2="82" class="net_4"/>
  <line x1="182" x2="210" y1="82" y2="82" class="net_4"/>
  <line x1="172" x2="210" y1="97" y2="97" class="net_5"/>
  <line x1="172" x2="182" y1="154.5" y2="154.5" class="net_9"/>
  <line x1="182" x2="182" y1="154.5" y2="199.5" class="net_9"/>
  <line x1="182" x2="209" y1="199.5" y2="199.5" class="net_9"/>
  <line x1="172" x2="209" y1="214.5" y2="214.5" class="net_10"/>
  <line x1="238" x2="250" y1="89.5" y2="89.5" class="net_6"/>
  <line x1="250" x2="250" y1="89.5" y2="207" class="net_6"/>
  <circle cx="250" cy="207" r="2" style="fill:#000" class="net_6"/>
  <line x1="250" x2="275" y1="207" y2="207" class="net_6"/>
  <line x1="240" x2="275" y1="207" y2="207" class="net_6"/>
</svg>
