<svg xmlns="http://www.w3.org/2000/svg" xmlns:xlink="http://www.w3.org/1999/xlink" xmlns:s="https://github.com/nturley/netlistsvg" width="236" height="252">
  <style>svg {
    stroke:#000;
    fill:none;
  }
  text {
    fill:#000;
    stroke:none;
    font-size:10px;
    font-weight: bold;
    font-family: "Courier New", monospace;
  }
  .nodelabel {
    text-anchor: middle;
  }
  .inputPortLabel {
    text-anchor: end;
  }
  .splitjoinBody {
    fill:#000;
  }</style>
  <g s:type="generic" transform="translate(84,22)" s:width="30" s:height="40" id="cell_and1">
    <text x="15" y="-4" class="nodelabel cell_and1" s:attribute="ref">and</text>
    <rect width="30" height="40" s:generic="body" class="cell_and1"/>
    <g transform="translate(0,10)" s:x="0" s:y="10" s:pid="in0" id="port_and1~a">
      <text x="-3" y="-4" class="inputPortLabel cell_and1">a</text>
    </g>
    <g transform="translate(0,30)" s:x="0" s:y="10" s:pid="in0" id="port_and1~b">
      <text x="-3" y="-4" class="inputPortLabel cell_and1">b</text>
    </g>
    <g transform="translate(30,10)" s:x="30" s:y="10" s:pid="out0" id="port_and1~out1">
      <text x="5" y="-4" style="fill:#000; stroke:none" class="cell_and1">out1</text>
    </g>
  </g>
  <g s:type="generic" transform="translate(84,152)" s:width="30" s:height="40" id="cell_and2">
    <text x="15" y="-4" class="nodelabel cell_and2" s:attribute="ref">and</text>
    <rect width="30" height="40" s:generic="body" class="cell_and2"/>
    <g transform="translate(0,10)" s:x="0" s:y="10" s:pid="in0" id="port_and2~c">
      <text x="-3" y="-4" class="inputPortLabel cell_and2">c</text>
    </g>
    <g transform="translate(0,30)" s:x="0" s:y="10" s:pid="in0" id="port_and2~d">
      <text x="-3" y="-4" class="inputPortLabel cell_and2">d</text>
    </g>
    <g transform="translate(30,10)" s:x="30" s:y="10" s:pid="out0" id="port_and2~out2">
      <text x="5" y="-4" style="fill:#000; stroke:none" class="cell_and2">out2</text>
    </g>
  </g>
  <g s:type="generic" transform="translate(194,22)" s:width="30" s:height="40" id="cell_or3">
    <text x="15" y="-4" class="nodelabel cell_or3" s:attribute="ref">or</text>
    <rect width="30" height="60" s:generic="body" class="cell_or3"/>
    <g transform="translate(0,10)" s:x="0" s:y="10" s:pid="in0" id="port_or3~w">
      <text x="-3" y="-4" class="inputPortLabel cell_or3">w</text>
    </g>
    <g transform="translate(0,30)" s:x="0" s:y="10" s:pid="in0" id="port_or3~d">
      <text x="-3" y="-4" class="inputPortLabel cell_or3">d</text>
    </g>
    <g transform="translate(0,50)" s:x="0" s:y="10" s:pid="in0" id="port_or3~out">
      <text x="-3" y="-4" class="inputPortLabel cell_or3">out</text>
    </g>
  </g>
  <g s:type="inputExt" transform="translate(12,22.5)" s:width="30" s:height="20" id="cell_a">
    <text x="15" y="-4" class="nodelabel cell_a" s:attribute="ref">a</text>
    <s:alias val="$_inputExt_"/>
    <path d="M0,0 L0,20 L15,20 L30,10 L15,0 Z" class="cell_a"/>
    <g s:x="28" s:y="10" s:pid="Y"/>
  </g>
  <g s:type="inputExt" transform="translate(12,87.5)" s:width="30" s:height="20" id="cell_b">
    <text x="15" y="-4" class="nodelabel cell_b" s:attribute="ref">b</text>
    <s:alias val="$_inputExt_"/>
    <path d="M0,0 L0,20 L15,20 L30,10 L15,0 Z" class="cell_b"/>
    <g s:x="28" s:y="10" s:pid="Y"/>
  </g>
  <g s:type="inputExt" transform="translate(12,152.5)" s:width="30" s:height="20" id="cell_c">
    <text x="15" y="-4" class="nodelabel cell_c" s:attribute="ref">c</text>
    <s:alias val="$_inputExt_"/>
    <path d="M0,0 L0,20 L15,20 L30,10 L15,0 Z" class="cell_c"/>
    <g s:x="28" s:y="10" s:pid="Y"/>
  </g>
  <g s:type="inputExt" transform="translate(12,217.5)" s:width="30" s:height="20" id="cell_d">
    <text x="15" y="-4" class="nodelabel cell_d" s:attribute="ref">d</text>
    <s:alias val="$_inputExt_"/>
    <path d="M0,0 L0,20 L15,20 L30,10 L15,0 Z" class="cell_d"/>
    <g s:x="28" s:y="10" s:pid="Y"/>
  </g>
  <g s:type="outputExt" transform="translate(194,220)" s:width="30" s:height="20" id="cell_out">
    <text x="15" y="-4" class="nodelabel cell_out" s:attribute="ref">out</text>
    <s:alias val="$_outputExt_"/>
    <path d="M30,0 L30,20 L15,20 L0,10 L15,0 Z" class="cell_out"/>
    <g s:x="0" s:y="10" s:pid="A"/>
  </g>
  <line x1="40" x2="84" y1="32.5" y2="32.5" class="net_1"/>
  <line x1="40" x2="52" y1="97.5" y2="97.5" class="net_2"/>
  <line x1="52" x2="52" y1="97.5" y2="52.5" class="net_2"/>
  <line x1="52" x2="84" y1="52.5" y2="52.5" class="net_2"/>
  <line x1="40" x2="84" y1="162.5" y2="162.5" class="net_3"/>
  <line x1="40" x2="52" y1="227.5" y2="227.5" class="net_4"/>
  <line x1="52" x2="52" y1="227.5" y2="182.5" class="net_4"/>
  <line x1="52" x2="84" y1="182.5" y2="182.5" class="net_4"/>
  <line x1="115" x2="194" y1="32.5" y2="32.5" class="net_7"/>
  <line x1="115" x2="150" y1="162.5" y2="162.5" class="net_6"/>
  <line x1="150" x2="150" y1="162.5" y2="52.5" class="net_6"/>
  <line x1="150" x2="194" y1="52.5" y2="52.5" class="net_6"/>
  <line x1="160" x2="160" y1="230" y2="72.5" class="net_5"/>
  <line x1="160" x2="194" y1="72.5" y2="72.5" class="net_5"/>
  <line x1="160" x2="194" y1="230" y2="230" class="net_5"/>
</svg>
