<svg xmlns="http://www.w3.org/2000/svg" xmlns:xlink="http://www.w3.org/1999/xlink" xmlns:s="https://github.com/nturley/netlistsvg" width="138" height="164.5">
  <style>svg {
    stroke:#000;
    fill:none;
  }
  text {
    fill:#000;
    stroke:none;
    font-size:10px;
    font-weight: bold;
    font-family: "Courier New", monospace;
  }
  .nodelabel {
    text-anchor: middle;
  }
  .inputPortLabel {
    text-anchor: end;
  }
  .splitjoinBody {
    fill:#000;
  }</style>
  <g s:type="generic" transform="translate(96,22)" s:width="30" s:height="40" id="cell_and1">
    <text x="15" y="-4" class="nodelabel cell_and1" s:attribute="ref">and</text>
    <rect width="30" height="60" s:generic="body" class="cell_and1"/>
    <g transform="translate(0,10)" s:x="0" s:y="10" s:pid="in0" id="port_and1~a">
      <text x="-3" y="-4" class="inputPortLabel cell_and1">a</text>
    </g>
    <g transform="translate(0,30)" s:x="0" s:y="10" s:pid="in0" id="port_and1~b">
      <text x="-3" y="-4" class="inputPortLabel cell_and1">b</text>
    </g>
    <g transform="translate(0,50)" s:x="0" s:y="10" s:pid="in0" id="port_and1~out">
      <text x="-3" y="-4" class="inputPortLabel cell_and1">out</text>
    </g>
  </g>
  <g s:type="inputExt" transform="translate(12,22.5)" s:width="30" s:height="20" id="cell_a">
    <text x="15" y="-4" class="nodelabel cell_a" s:attribute="ref">a</text>
    <s:alias val="$_inputExt_"/>
    <path d="M0,0 L0,20 L15,20 L30,10 L15,0 Z" class="cell_a"/>
    <g s:x="28" s:y="10" s:pid="Y"/>
  </g>
  <g s:type="inputExt" transform="translate(12,87.5)" s:width="30" s:height="20" id="cell_b">
    <text x="15" y="-4" class="nodelabel cell_b" s:attribute="ref">b</text>
    <s:alias val="$_inputExt_"/>
    <path d="M0,0 L0,20 L15,20 L30,10 L15,0 Z" class="cell_b"/>
    <g s:x="28" s:y="10" s:pid="Y"/>
  </g>
  <g s:type="outputExt" transform="translate(96,132.5)" s:width="30" s:height="20" id="cell_out">
    <text x="15" y="-4" class="nodelabel cell_out" s:attribute="ref">out</text>
    <s:alias val="$_outputExt_"/>
    <path d="M30,0 L30,20 L15,20 L0,10 L15,0 Z" class="cell_out"/>
    <g s:x="0" s:y="10" s:pid="A"/>
  </g>
  <line x1="40" x2="96" y1="32.5" y2="32.5" class="net_1"/>
  <line x1="40" x2="52" y1="97.5" y2="97.5" class="net_2"/>
  <line x1="52" x2="52" y1="97.5" y2="52.5" class="net_2"/>
  <line x1="52" x2="96" y1="52.5" y2="52.5" class="net_2"/>
  <line x1="62" x2="62" y1="142.5" y2="72.5" class="net_3"/>
  <line x1="62" x2="96" y1="72.5" y2="72.5" class="net_3"/>
  <line x1="62" x2="96" y1="142.5" y2="142.5" class="net_3"/>
</svg>
