<svg xmlns="http://www.w3.org/2000/svg" xmlns:xlink="http://www.w3.org/1999/xlink" xmlns:s="https://github.com/nturley/netlistsvg" width="230" height="281">
  <style>svg {
    stroke:#000;
    fill:none;
  }
  text {
    fill:#000;
    stroke:none;
    font-size:10px;
    font-weight: bold;
    font-family: "Courier New", monospace;
  }
  .nodelabel {
    text-anchor: middle;
  }
  .inputPortLabel {
    text-anchor: end;
  }
  .splitjoinBody {
    fill:#000;
  }</style>
  <g s:type="generic" transform="translate(188,22)" s:width="30" s:height="40" id="cell_and1">
    <text x="15" y="-4" class="nodelabel cell_and1" s:attribute="ref">$AND</text>
    <rect width="30" height="60" s:generic="body" class="cell_and1"/>
    <g transform="translate(0,10)" s:x="0" s:y="10" s:pid="in0" id="port_and1~a">
      <text x="-3" y="-4" class="inputPortLabel cell_and1">a</text>
    </g>
    <g transform="translate(0,30)" s:x="0" s:y="10" s:pid="in0" id="port_and1~b">
      <text x="-3" y="-4" class="inputPortLabel cell_and1">b</text>
    </g>
    <g transform="translate(0,50)" s:x="0" s:y="10" s:pid="in0" id="port_and1~out">
      <text x="-3" y="-4" class="inputPortLabel cell_and1">out</text>
    </g>
  </g>
  <g s:type="generic" transform="translate(96,83.5)" s:width="30" s:height="40" id="cell_and2">
    <text x="15" y="-4" class="nodelabel cell_and2" s:attribute="ref">$AND</text>
    <rect width="30" height="40" s:generic="body" class="cell_and2"/>
    <g transform="translate(0,10)" s:x="0" s:y="10" s:pid="in0" id="port_and2~a">
      <text x="-3" y="-4" class="inputPortLabel cell_and2">a</text>
    </g>
    <g transform="translate(0,30)" s:x="0" s:y="10" s:pid="in0" id="port_and2~out">
      <text x="-3" y="-4" class="inputPortLabel cell_and2">out</text>
    </g>
    <g transform="translate(30,10)" s:x="30" s:y="10" s:pid="out0" id="port_and2~b">
      <text x="5" y="-4" style="fill:#000; stroke:none" class="cell_and2">b</text>
    </g>
  </g>
  <g s:type="generic" transform="translate(188,141)" s:width="30" s:height="40" id="cell_or3">
    <text x="15" y="-4" class="nodelabel cell_or3" s:attribute="ref">$OR</text>
    <rect width="30" height="60" s:generic="body" class="cell_or3"/>
    <g transform="translate(0,10)" s:x="0" s:y="10" s:pid="in0" id="port_or3~a">
      <text x="-3" y="-4" class="inputPortLabel cell_or3">a</text>
    </g>
    <g transform="translate(0,30)" s:x="0" s:y="10" s:pid="in0" id="port_or3~b">
      <text x="-3" y="-4" class="inputPortLabel cell_or3">b</text>
    </g>
    <g transform="translate(0,50)" s:x="0" s:y="10" s:pid="in0" id="port_or3~out">
      <text x="-3" y="-4" class="inputPortLabel cell_or3">out</text>
    </g>
  </g>
  <g s:type="inputExt" transform="translate(96,22.5)" s:width="30" s:height="20" id="cell_a">
    <text x="15" y="-4" class="nodelabel cell_a" s:attribute="ref">a</text>
    <s:alias val="$_inputExt_"/>
    <path d="M0,0 L0,20 L15,20 L30,10 L15,0 Z" class="cell_a"/>
    <g s:x="28" s:y="10" s:pid="Y"/>
  </g>
  <g s:type="inputExt" transform="translate(12,42.5)" s:width="30" s:height="20" id="cell_b">
    <text x="15" y="-4" class="nodelabel cell_b" s:attribute="ref">b</text>
    <s:alias val="$_inputExt_"/>
    <path d="M0,0 L0,20 L15,20 L30,10 L15,0 Z" class="cell_b"/>
    <g s:x="28" s:y="10" s:pid="Y"/>
  </g>
  <g s:type="outputExt" transform="translate(188,249)" s:width="30" s:height="20" id="cell_out">
    <text x="15" y="-4" class="nodelabel cell_out" s:attribute="ref">out</text>
    <s:alias val="$_outputExt_"/>
    <path d="M30,0 L30,20 L15,20 L0,10 L15,0 Z" class="cell_out"/>
    <g s:x="0" s:y="10" s:pid="A"/>
  </g>
  <line x1="124" x2="188" y1="32.5" y2="32.5" class="net_1"/>
  <line x1="127" x2="144" y1="94" y2="94" class="net_2"/>
  <line x1="144" x2="144" y1="94" y2="52.5" class="net_2"/>
  <circle cx="144" cy="52.5" r="2" style="fill:#000" class="net_2"/>
  <line x1="144" x2="188" y1="52.5" y2="52.5" class="net_2"/>
  <line x1="127" x2="144" y1="94" y2="94" class="net_2"/>
  <line x1="144" x2="144" y1="94" y2="63.5" class="net_2"/>
  <line x1="144" x2="52" y1="63.5" y2="63.5" class="net_2"/>
  <line x1="52" x2="52" y1="63.5" y2="94" class="net_2"/>
  <circle cx="52" cy="63.5" r="2" style="fill:#000" class="net_2"/>
  <circle cx="144" cy="63.5" r="2" style="fill:#000" class="net_2"/>
  <line x1="52" x2="96" y1="94" y2="94" class="net_2"/>
  <line x1="40" x2="188" y1="52.5" y2="52.5" class="net_2"/>
  <line x1="40" x2="52" y1="52.5" y2="52.5" class="net_2"/>
  <line x1="52" x2="52" y1="52.5" y2="94" class="net_2"/>
  <circle cx="52" cy="52.5" r="2" style="fill:#000" class="net_2"/>
  <line x1="52" x2="96" y1="94" y2="94" class="net_2"/>
  <line x1="154" x2="154" y1="161.5" y2="72.5" class="net_4"/>
  <line x1="154" x2="188" y1="72.5" y2="72.5" class="net_4"/>
  <line x1="154" x2="154" y1="161.5" y2="151.5" class="net_4"/>
  <circle cx="154" cy="151.5" r="2" style="fill:#000" class="net_4"/>
  <line x1="154" x2="188" y1="151.5" y2="151.5" class="net_4"/>
  <line x1="52" x2="96" y1="114" y2="114" class="net_5"/>
  <line x1="52" x2="52" y1="114" y2="171.5" class="net_5"/>
  <line x1="52" x2="188" y1="171.5" y2="171.5" class="net_5"/>
  <line x1="144" x2="144" y1="259" y2="191.5" class="net_3"/>
  <line x1="144" x2="188" y1="191.5" y2="191.5" class="net_3"/>
  <line x1="144" x2="188" y1="259" y2="259" class="net_3"/>
</svg>
